<?xml version="1.0" encoding="iso-8859-1"?>
<!-- Generator: Adobe Illustrator 19.0.0, SVG Export Plug-In . SVG Version: 6.00 Build 0)  -->
<svg version="1.1" id="Layer_1" xmlns="http://www.w3.org/2000/svg" xmlns:xlink="http://www.w3.org/1999/xlink" x="0px" y="0px"
	 viewBox="0 0 40 40" enable-background="new 0 0 40 40" xml:space="preserve">
<linearGradient id="XMLID_18_" gradientUnits="userSpaceOnUse" x1="7" y1="19.9412" x2="32.1356" y2="19.9412">
	<stop  offset="0" style="stop-color:#FBB449"/>
	<stop  offset="0.2884" style="stop-color:#F9AB4A"/>
	<stop  offset="0.7041" style="stop-color:#F6954C"/>
</linearGradient>
<path id="XMLID_13_" fill="url(#XMLID_18_)" d="M31.244,32.295c-0.848,1.704-2.244,2.95-4.046,3.851
	c-0.872,0.436-1.791,0.773-2.75,1.024h0c-0.057,0.028-0.115,0.056-0.201,0.05c0.045-0.06,0.111-0.067,0.167-0.088
	c0.62-0.293,1.002-0.766,1.203-1.348c0.443-1.287,0.388-2.555-0.272-3.781c-0.336-0.624-0.739-1.217-1.022-1.864
	c-0.294-0.674-0.586-1.347-0.698-2.07c-0.026-0.167-0.008-0.333-0.007-0.515c-0.107,0.034-0.145,0.107-0.192,0.169
	c-0.516,0.67-0.738,1.426-0.791,2.227c-0.038,0.568,0.015,1.131,0.135,1.69c0.009,0.041,0.017,0.083,0.02,0.125
	c0.001,0.016-0.01,0.032-0.021,0.064c-0.126-0.051-0.208-0.138-0.289-0.222c-0.584-0.608-0.813-1.333-0.855-2.116
	c-0.041-0.779,0.098-1.54,0.362-2.278c0.389-1.088,0.311-2.164-0.074-3.231c-0.343-0.951-0.989-1.716-1.865-2.329
	c-0.037-0.026-0.076-0.049-0.116-0.072c-0.01-0.006-0.025-0.006-0.04-0.009c-0.048,0.046-0.004,0.09,0.011,0.13
	c0.838,2.281,0.111,4.757-2.018,6.064c-0.876,0.538-1.22,0.731-1.433,0.841c-0.02,0.01-0.143,0.068-0.305,0.155
	c0,0-0.101,0.054-0.195,0.108c-0.21,0.121-0.419,0.274-0.616,0.436c-0.851,0.701-1.419,1.682-1.59,2.771
	c-0.112,0.714-0.132,1.552,0.066,2.404c0.16,0.686,0.437,1.182,0.59,1.425c0.512,0.812,1.283,1.446,2.29,1.915l0,0h0
	c0.025,0.009,0.065,0.026,0.051,0.044c-0.037,0.045-0.083,0.005-0.125-0.007c-2.767-0.612-5.281-1.651-7.265-3.542
	C7.87,32.901,7.101,31.21,7.01,29.271c-0.086-1.82,0.416-3.533,1.158-5.204c0.356-0.802,0.814-1.56,1.229-2.336
	c0.62-1.158,1.063-2.369,1.226-3.651c0.144-1.136,0.037-2.238-0.587-3.264c-0.022-0.036-0.066-0.078-0.031-0.115
	c0.041-0.042,0.102-0.012,0.151,0.003c0.532,0.157,0.998,0.415,1.413,0.749c0.856,0.688,1.384,1.56,1.73,2.527
	c0.488,1.365,0.604,2.772,0.546,4.195c-0.016,0.397-0.05,0.793-0.074,1.19c-0.003,0.045-0.032,0.104,0.036,0.127
	c0.051,0.017,0.085-0.026,0.119-0.053c0.17-0.141,0.296-0.312,0.403-0.494c0.329-0.565,0.47-1.177,0.553-1.802
	c0.157-1.185,0.101-2.371-0.061-3.55c-0.076-0.548-0.29-1.076-0.399-1.622c-0.474-2.373-0.545-4.742,0.1-7.1
	c0.559-2.043,1.639-3.825,3.362-5.275c0.719-0.605,1.515-1.117,2.374-1.55c0.035-0.018,0.072-0.032,0.109-0.045
	c0.01-0.003,0.024,0.004,0.038,0.007c0.024,0.06-0.025,0.102-0.051,0.148c-0.823,1.484-1.247,3.062-1.357,4.709
	c-0.225,3.382,0.927,6.411,2.968,9.207c0.697,0.955,1.489,1.844,2.342,2.69c0.061,0.06,0.111,0.136,0.226,0.174
	c-0.096-2.113,0.671-3.944,2.204-5.524c0.759-0.782,1.653-1.419,2.639-1.953c0.048,0.055,0.022,0.088,0.009,0.121
	c-0.795,2.126-0.816,4.281-0.285,6.453c0.234,0.957,0.604,1.873,1.059,2.763c1.063,2.077,1.751,4.247,1.934,6.531
	C32.233,29.038,32.033,30.709,31.244,32.295z"/>
<g id="XMLID_1_">
</g>
<g id="XMLID_2_">
</g>
<g id="XMLID_3_">
</g>
<g id="XMLID_4_">
</g>
<g id="XMLID_5_">
</g>
<g id="XMLID_6_">
</g>
<g id="XMLID_7_">
</g>
<g id="XMLID_8_">
</g>
<g id="XMLID_9_">
</g>
<g id="XMLID_10_">
</g>
<g id="XMLID_11_">
</g>
<g id="XMLID_12_">
</g>
<g id="XMLID_14_">
</g>
<g id="XMLID_15_">
</g>
<g id="XMLID_16_">
</g>
</svg>
