<?xml version="1.0" encoding="iso-8859-1"?>
<!-- Generator: Adobe Illustrator 19.0.0, SVG Export Plug-In . SVG Version: 6.00 Build 0)  -->
<svg version="1.2" baseProfile="tiny" id="Layer_1" xmlns="http://www.w3.org/2000/svg" xmlns:xlink="http://www.w3.org/1999/xlink"
	 x="0px" y="0px" viewBox="0 0 30 40" xml:space="preserve">
<path id="XMLID_13_" fill="#FFFFFF" d="M27.667,33.736c-0.933,1.875-2.469,3.245-4.451,4.236c-0.959,0.48-1.97,0.851-3.025,1.126h0
	c-0.063,0.031-0.126,0.061-0.221,0.055c0.05-0.066,0.122-0.073,0.183-0.097c0.682-0.322,1.102-0.842,1.323-1.483
	c0.488-1.416,0.426-2.811-0.299-4.159c-0.369-0.686-0.813-1.339-1.124-2.051c-0.324-0.741-0.645-1.482-0.768-2.277
	c-0.028-0.183-0.009-0.366-0.008-0.566c-0.118,0.037-0.16,0.118-0.212,0.185c-0.568,0.737-0.812,1.568-0.87,2.449
	c-0.041,0.624,0.017,1.244,0.149,1.859c0.01,0.045,0.018,0.091,0.022,0.137c0.002,0.017-0.011,0.036-0.023,0.071
	c-0.138-0.056-0.229-0.151-0.318-0.245c-0.643-0.669-0.895-1.466-0.94-2.328c-0.045-0.857,0.108-1.693,0.398-2.506
	c0.428-1.197,0.342-2.38-0.081-3.554c-0.378-1.046-1.088-1.887-2.051-2.561c-0.041-0.028-0.084-0.054-0.127-0.08
	c-0.011-0.007-0.027-0.006-0.044-0.01c-0.053,0.051-0.005,0.099,0.012,0.143c0.922,2.509,0.122,5.232-2.22,6.67
	c-0.963,0.592-1.342,0.804-1.576,0.925c-0.022,0.011-0.157,0.075-0.336,0.171c0,0-0.111,0.059-0.214,0.119
	c-0.231,0.133-0.461,0.301-0.678,0.48c-0.936,0.771-1.56,1.85-1.749,3.048c-0.124,0.785-0.145,1.707,0.073,2.644
	c0.176,0.755,0.48,1.3,0.649,1.567c0.564,0.893,1.411,1.59,2.519,2.106l0,0h0c0.027,0.009,0.072,0.029,0.056,0.048
	c-0.041,0.049-0.091,0.005-0.137-0.007c-3.044-0.673-5.808-1.816-7.991-3.896c-1.63-1.553-2.476-3.413-2.577-5.546
	c-0.094-2.002,0.458-3.886,1.274-5.724c0.391-0.882,0.895-1.716,1.352-2.57c0.682-1.274,1.169-2.605,1.349-4.016
	c0.159-1.249,0.04-2.461-0.645-3.59c-0.024-0.039-0.072-0.086-0.034-0.126c0.045-0.047,0.112-0.013,0.166,0.003
	c0.585,0.172,1.098,0.457,1.554,0.824c0.942,0.757,1.522,1.716,1.902,2.779c0.537,1.502,0.664,3.049,0.601,4.615
	c-0.018,0.437-0.055,0.873-0.082,1.309c-0.003,0.049-0.035,0.114,0.039,0.14c0.056,0.019,0.094-0.028,0.131-0.059
	c0.187-0.155,0.326-0.343,0.443-0.543c0.362-0.621,0.517-1.295,0.608-1.982c0.173-1.304,0.112-2.608-0.068-3.905
	c-0.083-0.603-0.319-1.183-0.439-1.784c-0.522-2.61-0.599-5.216,0.11-7.81c0.614-2.248,1.802-4.208,3.698-5.802
	c0.791-0.665,1.666-1.229,2.612-1.705c0.038-0.019,0.079-0.036,0.12-0.05c0.011-0.004,0.027,0.005,0.042,0.008
	c0.026,0.066-0.028,0.112-0.056,0.163c-0.905,1.632-1.372,3.368-1.492,5.179c-0.248,3.72,1.019,7.051,3.265,10.127
	c0.767,1.05,1.638,2.028,2.576,2.959c0.067,0.066,0.122,0.149,0.249,0.191c-0.106-2.324,0.739-4.338,2.425-6.076
	c0.834-0.86,1.818-1.561,2.903-2.148c0.053,0.06,0.024,0.097,0.01,0.133c-0.875,2.339-0.898,4.709-0.314,7.098
	c0.257,1.052,0.664,2.06,1.165,3.039c1.169,2.285,1.925,4.671,2.128,7.184C28.755,30.154,28.534,31.992,27.667,33.736z"/>
<g id="XMLID_1_">
</g>
<g id="XMLID_2_">
</g>
<g id="XMLID_3_">
</g>
<g id="XMLID_4_">
</g>
<g id="XMLID_5_">
</g>
<g id="XMLID_6_">
</g>
<g id="XMLID_7_">
</g>
<g id="XMLID_8_">
</g>
<g id="XMLID_9_">
</g>
<g id="XMLID_10_">
</g>
<g id="XMLID_11_">
</g>
<g id="XMLID_12_">
</g>
<g id="XMLID_14_">
</g>
<g id="XMLID_15_">
</g>
<g id="XMLID_16_">
</g>
</svg>
