<?xml version="1.0" encoding="iso-8859-1"?>
<!-- Generator: Adobe Illustrator 19.0.0, SVG Export Plug-In . SVG Version: 6.00 Build 0)  -->
<svg version="1.2" baseProfile="tiny" id="Layer_1" xmlns="http://www.w3.org/2000/svg" xmlns:xlink="http://www.w3.org/1999/xlink"
	 x="0px" y="0px" viewBox="0 0 40 10" xml:space="preserve">
<g id="XMLID_21_">
	<path id="XMLID_3_" fill="#555555" d="M12.744,7.626h-1.841l-0.385,1.106H9.659l1.795-4.752h0.741l1.798,4.752h-0.862L12.744,7.626
		z M11.135,6.96h1.377l-0.688-1.971L11.135,6.96z"/>
	<path id="XMLID_6_" fill="#555555" d="M17.547,7.003c0,0.546-0.124,0.981-0.372,1.307s-0.581,0.488-0.999,0.488
		c-0.387,0-0.697-0.127-0.93-0.382v1.674h-0.793V5.201h0.731l0.033,0.359c0.233-0.283,0.549-0.424,0.95-0.424
		c0.431,0,0.769,0.161,1.013,0.481c0.245,0.321,0.367,0.767,0.367,1.337V7.003z M16.758,6.935c0-0.353-0.07-0.632-0.21-0.839
		c-0.141-0.207-0.341-0.311-0.603-0.311c-0.324,0-0.557,0.134-0.698,0.401v1.566c0.144,0.274,0.378,0.411,0.705,0.411
		c0.252,0,0.45-0.102,0.592-0.305S16.758,7.348,16.758,6.935z"/>
	<path id="XMLID_9_" fill="#555555" d="M18.07,6.935c0-0.347,0.068-0.658,0.206-0.936s0.33-0.491,0.578-0.64
		s0.533-0.224,0.855-0.224c0.477,0,0.863,0.153,1.161,0.46c0.297,0.307,0.458,0.713,0.481,1.22l0.004,0.187
		c0,0.348-0.067,0.659-0.201,0.934c-0.134,0.273-0.325,0.486-0.574,0.636c-0.25,0.15-0.537,0.226-0.863,0.226
		c-0.499,0-0.897-0.166-1.196-0.498S18.07,7.526,18.07,6.974V6.935z M18.863,7.003c0,0.363,0.075,0.647,0.225,0.854
		c0.15,0.205,0.359,0.308,0.627,0.308s0.476-0.104,0.625-0.313s0.224-0.515,0.224-0.917c0-0.357-0.077-0.64-0.23-0.849
		c-0.153-0.209-0.361-0.313-0.625-0.313c-0.259,0-0.464,0.103-0.617,0.308C18.939,6.286,18.863,6.594,18.863,7.003z"/>
	<path id="XMLID_12_" fill="#555555" d="M22.867,8.732h-0.793V3.719h0.793V8.732z"/>
	<path id="XMLID_14_" fill="#555555" d="M24.574,8.732h-0.793V3.719h0.793V8.732z"/>
	<path id="XMLID_16_" fill="#555555" d="M25.289,6.935c0-0.347,0.068-0.658,0.206-0.936c0.137-0.277,0.329-0.491,0.577-0.64
		s0.533-0.224,0.855-0.224c0.477,0,0.863,0.153,1.16,0.46c0.297,0.307,0.457,0.713,0.481,1.22l0.003,0.187
		c0,0.348-0.066,0.659-0.2,0.934c-0.134,0.273-0.326,0.486-0.575,0.636c-0.249,0.15-0.536,0.226-0.863,0.226
		c-0.498,0-0.896-0.166-1.195-0.498c-0.3-0.332-0.449-0.773-0.449-1.326V6.935z M26.082,7.003c0,0.363,0.075,0.647,0.226,0.854
		c0.149,0.205,0.358,0.308,0.626,0.308s0.477-0.104,0.625-0.313c0.149-0.209,0.224-0.515,0.224-0.917
		c0-0.357-0.076-0.64-0.229-0.849c-0.153-0.209-0.362-0.313-0.625-0.313c-0.259,0-0.465,0.103-0.617,0.308
		C26.158,6.286,26.082,6.594,26.082,7.003z"/>
	<path id="XMLID_19_" fill="#555555" d="M34.46,3.98v3.176c0,0.505-0.162,0.904-0.484,1.199c-0.323,0.295-0.754,0.442-1.291,0.442
		c-0.544,0-0.976-0.146-1.296-0.436c-0.319-0.291-0.479-0.694-0.479-1.21V3.98h0.822v3.174c0,0.317,0.08,0.56,0.241,0.727
		s0.398,0.251,0.712,0.251c0.635,0,0.953-0.334,0.953-1.004V3.98H34.46z"/>
	<path id="XMLID_22_" fill="#555555" d="M36.977,5.697l0.999-1.717h0.953l-1.437,2.356l1.469,2.396h-0.963l-1.021-1.743
		l-1.024,1.743h-0.96l1.472-2.396L35.024,3.98h0.953L36.977,5.697z"/>
</g>
<path id="XMLID_2_" fill="#F6954C" d="M8.09,7.758C7.878,8.171,7.534,8.471,7.091,8.686C6.877,8.79,6.652,8.869,6.417,8.928h0
	C6.403,8.935,6.389,8.941,6.368,8.939c0.011-0.015,0.027-0.016,0.041-0.021c0.152-0.07,0.247-0.184,0.297-0.326
	C6.818,8.28,6.808,7.97,6.651,7.669C6.571,7.516,6.474,7.37,6.407,7.211c-0.07-0.165-0.139-0.33-0.164-0.507
	c-0.006-0.041-0.001-0.081,0-0.126C6.216,6.587,6.206,6.604,6.195,6.619C6.067,6.781,6.01,6.965,5.995,7.16
	c-0.011,0.138,0,0.276,0.028,0.413c0.002,0.01,0.004,0.02,0.005,0.031c0,0.004-0.003,0.008-0.005,0.016
	c-0.031-0.013-0.05-0.034-0.07-0.055C5.812,7.414,5.758,7.237,5.75,7.045C5.742,6.855,5.778,6.67,5.845,6.49
	c0.098-0.264,0.082-0.527-0.009-0.789C5.755,5.469,5.599,5.28,5.387,5.128C5.379,5.121,5.369,5.116,5.359,5.11
	C5.357,5.108,5.353,5.108,5.35,5.108C5.338,5.119,5.348,5.129,5.352,5.139c0.198,0.559,0.013,1.161-0.51,1.474
	c-0.215,0.129-0.3,0.175-0.352,0.201C4.485,6.817,4.455,6.831,4.415,6.852c0,0-0.025,0.013-0.048,0.026
	C4.316,6.906,4.264,6.943,4.216,6.982C4.006,7.151,3.865,7.388,3.82,7.654C3.79,7.828,3.783,8.032,3.829,8.241
	c0.037,0.168,0.103,0.29,0.14,0.349c0.123,0.2,0.309,0.356,0.553,0.474l0,0h0c0.006,0.002,0.016,0.007,0.012,0.011
	c-0.009,0.011-0.02,0.001-0.03-0.002C3.831,8.915,3.22,8.655,2.741,8.188C2.384,7.839,2.201,7.424,2.184,6.95
	C2.168,6.506,2.296,6.089,2.482,5.684c0.089-0.195,0.203-0.378,0.307-0.567c0.155-0.281,0.266-0.575,0.31-0.888
	c0.038-0.277,0.015-0.546-0.134-0.798C2.959,3.423,2.948,3.412,2.957,3.403c0.01-0.01,0.025-0.003,0.037,0.001
	c0.129,0.04,0.242,0.104,0.343,0.187c0.207,0.17,0.333,0.385,0.415,0.622c0.115,0.335,0.14,0.678,0.121,1.025
	c-0.005,0.097-0.014,0.193-0.022,0.29C3.85,5.539,3.843,5.554,3.86,5.56C3.872,5.564,3.88,5.554,3.889,5.547
	c0.042-0.034,0.073-0.075,0.1-0.119c0.082-0.137,0.118-0.286,0.14-0.438C4.17,4.701,4.16,4.411,4.124,4.123
	C4.107,3.989,4.056,3.859,4.031,3.726c-0.109-0.58-0.119-1.159,0.045-1.733c0.142-0.497,0.411-0.929,0.835-1.278
	C5.088,0.57,5.284,0.447,5.495,0.344C5.504,0.34,5.513,0.337,5.522,0.334c0.002-0.001,0.006,0.001,0.009,0.002
	C5.537,0.35,5.525,0.36,5.518,0.371c-0.205,0.36-0.313,0.744-0.345,1.145C5.109,2.341,5.382,3.084,5.872,3.772
	C6.039,4.007,6.23,4.226,6.436,4.435C6.45,4.45,6.462,4.469,6.49,4.478C6.473,3.962,6.666,3.518,7.044,3.137
	c0.187-0.189,0.407-0.342,0.65-0.469c0.012,0.014,0.005,0.022,0.002,0.03c-0.2,0.517-0.211,1.042-0.088,1.574
	C7.662,4.505,7.75,4.73,7.858,4.948c0.253,0.51,0.415,1.041,0.453,1.599C8.34,6.966,8.287,7.373,8.09,7.758z"/>
<g id="XMLID_1_">
</g>
<g id="XMLID_24_">
</g>
<g id="XMLID_25_">
</g>
<g id="XMLID_26_">
</g>
<g id="XMLID_27_">
</g>
<g id="XMLID_28_">
</g>
<g id="XMLID_29_">
</g>
<g id="XMLID_30_">
</g>
<g id="XMLID_31_">
</g>
<g id="XMLID_32_">
</g>
<g id="XMLID_33_">
</g>
<g id="XMLID_34_">
</g>
<g id="XMLID_35_">
</g>
<g id="XMLID_36_">
</g>
<g id="XMLID_37_">
</g>
</svg>
