<?xml version="1.0" encoding="iso-8859-1"?>
<!-- Generator: Adobe Illustrator 19.0.0, SVG Export Plug-In . SVG Version: 6.00 Build 0)  -->
<svg version="1.2" baseProfile="tiny" id="Layer_1" xmlns="http://www.w3.org/2000/svg" xmlns:xlink="http://www.w3.org/1999/xlink"
	 x="0px" y="0px" viewBox="40 -15 120 40" xml:space="preserve">
<g id="XMLID_21_">
	<path fill="#FFFFFF" d="M73.36,11.309h-5.826l-1.219,3.502h-2.717L69.28-0.23h2.345l5.692,15.041H74.59L73.36,11.309z
		 M68.268,9.201h4.359l-2.18-6.24L68.268,9.201z"/>
	<path fill="#FFFFFF" d="M88.07,9.335c0,1.729-0.393,3.108-1.178,4.138s-1.838,1.545-3.16,1.545c-1.226,0-2.208-0.403-2.944-1.209
		v5.3h-2.511V3.633h2.314l0.103,1.137c0.737-0.896,1.739-1.343,3.006-1.343c1.363,0,2.434,0.508,3.207,1.524
		c0.775,1.016,1.162,2.426,1.162,4.23V9.335z M85.57,9.118c0-1.115-0.221-2.001-0.666-2.655c-0.443-0.654-1.079-0.981-1.906-0.981
		c-1.026,0-1.763,0.424-2.21,1.271v4.958c0.454,0.868,1.198,1.302,2.231,1.302c0.799,0,1.424-0.321,1.875-0.966
		C85.346,11.403,85.57,10.427,85.57,9.118z"/>
	<path fill="#FFFFFF" d="M89.724,9.118c0-1.095,0.217-2.081,0.65-2.96c0.434-0.878,1.044-1.552,1.829-2.024
		c0.784-0.471,1.687-0.708,2.706-0.708c1.508,0,2.732,0.486,3.673,1.457c0.939,0.971,1.447,2.259,1.523,3.863l0.011,0.589
		c0,1.103-0.212,2.087-0.636,2.955c-0.424,0.867-1.029,1.539-1.818,2.015c-0.788,0.475-1.699,0.713-2.732,0.713
		c-1.577,0-2.839-0.525-3.786-1.576c-0.947-1.05-1.42-2.449-1.42-4.199V9.118z M92.233,9.335c0,1.15,0.238,2.051,0.713,2.702
		c0.476,0.65,1.137,0.976,1.983,0.976c0.848,0,1.507-0.33,1.979-0.991s0.708-1.629,0.708-2.903c0-1.129-0.243-2.024-0.729-2.686
		S95.742,5.44,94.909,5.44c-0.819,0-1.471,0.325-1.952,0.977C92.475,7.067,92.233,8.04,92.233,9.335z"/>
	<path fill="#FFFFFF" d="M104.91,14.811h-2.511V-1.057h2.511V14.811z"/>
	<path fill="#FFFFFF" d="M110.313,14.811h-2.511V-1.057h2.511V14.811z"/>
	<path fill="#FFFFFF" d="M112.575,9.118c0-1.095,0.217-2.081,0.65-2.96c0.434-0.878,1.044-1.552,1.829-2.024
		c0.784-0.471,1.687-0.708,2.706-0.708c1.508,0,2.732,0.486,3.673,1.457c0.939,0.971,1.447,2.259,1.523,3.863l0.011,0.589
		c0,1.103-0.212,2.087-0.636,2.955c-0.424,0.867-1.029,1.539-1.818,2.015c-0.788,0.475-1.699,0.713-2.732,0.713
		c-1.577,0-2.839-0.525-3.786-1.576c-0.947-1.05-1.42-2.449-1.42-4.199V9.118z M115.085,9.335c0,1.15,0.238,2.051,0.713,2.702
		c0.476,0.65,1.137,0.976,1.983,0.976c0.848,0,1.507-0.33,1.979-0.991s0.708-1.629,0.708-2.903c0-1.129-0.243-2.024-0.729-2.686
		s-1.146-0.992-1.979-0.992c-0.819,0-1.471,0.325-1.952,0.977C115.326,7.067,115.085,8.04,115.085,9.335z"/>
	<path fill="#FFFFFF" d="M141.604-0.23V9.821c0,1.598-0.512,2.863-1.534,3.796c-1.023,0.934-2.385,1.4-4.086,1.4
		c-1.722,0-3.089-0.46-4.102-1.38c-1.012-0.919-1.519-2.195-1.519-3.827V-0.23h2.604V9.815c0,1.004,0.255,1.771,0.765,2.3
		c0.51,0.53,1.26,0.795,2.252,0.795c2.011,0,3.017-1.06,3.017-3.178V-0.23H141.604z"/>
	<path fill="#FFFFFF" d="M149.567,5.203l3.161-5.434h3.017L151.2,7.228l4.648,7.583h-3.048l-3.233-5.517l-3.243,5.517h-3.037
		l4.659-7.583L143.39-0.23h3.017L149.567,5.203z"/>
</g>
<path id="XMLID_2_" fill="#FFFFFF" d="M60.88,11.724c-0.67,1.309-1.76,2.259-3.16,2.938c-0.678,0.329-1.391,0.581-2.134,0.766l0,0
	c-0.044,0.021-0.089,0.042-0.156,0.037c0.035-0.046,0.087-0.05,0.129-0.067c0.481-0.22,0.781-0.582,0.941-1.03
	c0.354-0.99,0.323-1.97-0.176-2.923c-0.254-0.485-0.56-0.947-0.772-1.449c-0.221-0.523-0.441-1.046-0.521-1.605
	c-0.018-0.129-0.003-0.257-0.001-0.398c-0.083,0.025-0.113,0.082-0.15,0.129c-0.405,0.513-0.583,1.095-0.631,1.713
	c-0.034,0.438,0.001,0.874,0.089,1.307c0.006,0.032,0.012,0.064,0.014,0.097c0.001,0.012-0.008,0.025-0.017,0.049
	c-0.097-0.041-0.159-0.108-0.222-0.174c-0.446-0.475-0.616-1.037-0.641-1.643c-0.025-0.602,0.089-1.188,0.3-1.757
	c0.31-0.837,0.26-1.669-0.028-2.497c-0.257-0.738-0.749-1.334-1.42-1.816c-0.028-0.02-0.058-0.039-0.089-0.057
	c-0.008-0.005-0.019-0.005-0.031-0.007c-0.038,0.035-0.004,0.069,0.007,0.101c0.627,1.769,0.042,3.675-1.614,4.666
	c-0.681,0.407-0.949,0.554-1.114,0.637c-0.016,0.008-0.111,0.051-0.237,0.117c0,0-0.078,0.041-0.151,0.082
	c-0.163,0.091-0.327,0.208-0.48,0.331c-0.664,0.534-1.111,1.286-1.253,2.126c-0.093,0.55-0.116,1.197,0.029,1.858
	c0.117,0.532,0.327,0.917,0.443,1.106c0.389,0.632,0.978,1.128,1.752,1.5l0,0l0,0c0.019,0.007,0.05,0.021,0.039,0.034
	c-0.029,0.034-0.064,0.003-0.096-0.006c-2.132-0.498-4.064-1.323-5.58-2.802c-1.132-1.104-1.711-2.417-1.764-3.916
	c-0.05-1.406,0.353-2.725,0.942-4.009c0.282-0.616,0.643-1.198,0.971-1.794c0.489-0.889,0.843-1.82,0.98-2.809
	c0.122-0.876,0.049-1.728-0.424-2.526c-0.016-0.028-0.05-0.061-0.023-0.089c0.032-0.032,0.079-0.008,0.117,0.003
	c0.41,0.126,0.767,0.33,1.085,0.592c0.655,0.539,1.055,1.218,1.313,1.968c0.365,1.059,0.442,2.147,0.384,3.246
	c-0.016,0.307-0.046,0.612-0.068,0.919c-0.003,0.035-0.026,0.08,0.027,0.098c0.039,0.014,0.066-0.019,0.092-0.04
	c0.133-0.107,0.232-0.238,0.316-0.378c0.26-0.433,0.374-0.905,0.443-1.387c0.132-0.914,0.1-1.831-0.015-2.743
	c-0.053-0.424-0.214-0.834-0.294-1.256c-0.345-1.837-0.378-3.668,0.141-5.484c0.45-1.573,1.3-2.94,2.645-4.044
	c0.561-0.461,1.18-0.849,1.848-1.176c0.027-0.013,0.056-0.024,0.085-0.034c0.008-0.003,0.019,0.004,0.03,0.006
	c0.018,0.047-0.021,0.079-0.041,0.114c-0.649,1.139-0.991,2.354-1.091,3.625c-0.204,2.61,0.658,4.96,2.21,7.139
	c0.53,0.744,1.134,1.438,1.785,2.099c0.047,0.047,0.084,0.106,0.173,0.136C55.761-0.286,56.37-1.694,57.569-2.9
	c0.593-0.597,1.29-1.081,2.057-1.485c0.037,0.043,0.016,0.068,0.006,0.094c-0.633,1.635-0.669,3.3-0.279,4.982
	c0.172,0.741,0.449,1.452,0.793,2.144c0.802,1.614,1.314,3.296,1.435,5.062C61.673,9.218,61.503,10.507,60.88,11.724z"/>
</svg>
